<svg width="27" height="24" viewBox="0 0 27 24" fill="none" xmlns="http://www.w3.org/2000/svg">
<g clip-path="url(#clip0_500_26)">
<path fill-rule="evenodd" clip-rule="evenodd" d="M4.10669 15.4504L13.0034 6.91975C13.4736 6.46911 13.533 6.45016 14.0208 6.91975L22.8933 15.4504V24.0064H16.3015V18.2259C16.3009 18.0378 16.2227 17.8577 16.084 17.7247C15.9453 17.5917 15.7572 17.5168 15.561 17.5162H11.4434C11.2472 17.5168 11.0591 17.5917 10.9204 17.7247C10.7817 17.8577 10.7035 18.0378 10.7029 18.2259V24.0064H4.11108V15.4504H4.10669ZM13.2209 0.185349L0 12.0832L3.26074 13.7236L12.5991 4.69812C13.3989 3.92739 13.4077 3.91054 14.2009 4.66442L23.7393 13.7194L27 12.079L13.7593 0.166397C13.522 -0.0441851 13.4868 -0.0715607 13.2209 0.185349Z" fill="#EEF3F9"/>
</g>
<defs>
<clipPath id="clip0_500_26">
<rect width="27" height="24" fill="white"/>
</clipPath>
</defs>
</svg>
