<svg width="23" height="23" viewBox="0 0 23 23" fill="none" xmlns="http://www.w3.org/2000/svg">
<path d="M0.489362 0C0.219234 0 0 0.218745 0 0.489362V20.5532C0 20.8238 0.219234 21.0426 0.489362 21.0426H13.0283C12.5262 20.1779 12.234 19.1766 12.234 18.1064C12.234 14.8683 14.8683 12.234 18.1064 12.234C19.3851 12.234 20.5664 12.6497 21.5319 13.3466V0.489362C21.5319 0.218745 21.3127 0 21.0426 0H0.489362ZM8.31915 2.93617H13.2128C13.7535 2.93617 14.1915 3.37415 14.1915 3.91489C14.1915 4.45564 13.7535 4.89362 13.2128 4.89362H8.31915C7.7784 4.89362 7.34043 4.45564 7.34043 3.91489C7.34043 3.37415 7.7784 2.93617 8.31915 2.93617ZM18.1064 13.2128C16.8023 13.2128 15.6185 13.7298 14.7401 14.5652C14.6673 14.6077 14.6067 14.6683 14.5642 14.7411C13.7294 15.6193 13.2128 16.8028 13.2128 18.1064C13.2128 20.8033 15.4095 23 18.1064 23C19.4068 23 20.5874 22.4856 21.465 21.6543C21.5443 21.6102 21.6098 21.5451 21.6543 21.466C22.4859 20.5883 23 19.407 23 18.1064C23 15.4095 20.8033 13.2128 18.1064 13.2128ZM18.1064 14.1915C20.2743 14.1915 22.0213 15.9385 22.0213 18.1064C22.0213 19.0132 21.7126 19.8439 21.1983 20.5064L15.7064 15.0144C16.3689 14.5001 17.1996 14.1915 18.1064 14.1915ZM15.0144 15.7064L20.5064 21.1983C19.8439 21.7126 19.0132 22.0213 18.1064 22.0213C15.9385 22.0213 14.1915 20.2743 14.1915 18.1064C14.1915 17.1996 14.5001 16.3689 15.0144 15.7064Z" fill="#557793"/>
</svg>
