<svg width="131" height="93" viewBox="0 0 131 93" fill="none" xmlns="http://www.w3.org/2000/svg">
<g clip-path="url(#clip0_465_771)">
<g clip-path="url(#clip1_465_771)">
<g clip-path="url(#clip2_465_771)">
<g clip-path="url(#clip3_465_771)">
<g clip-path="url(#clip4_465_771)">
<g clip-path="url(#clip5_465_771)">
<g clip-path="url(#clip6_465_771)">
<path d="M14.5913 93.0375C12.5465 93.0375 10.6133 92.8408 8.79162 92.4475C6.96993 92.0617 5.38989 91.5904 4.0515 91.0339C2.71311 90.4773 1.72791 89.9579 1.09589 89.4755V79.5132C2.88041 80.515 5.12964 81.45 7.8436 82.3182C10.5576 83.1939 13.5689 83.6317 16.8777 83.6317C18.2161 83.6317 19.2125 83.4536 19.8668 83.0974C20.5137 82.7486 20.8371 82.129 20.8371 81.2385C20.8371 80.2738 20.1047 79.4649 18.6399 78.8119C17.1677 78.1663 14.8515 77.3611 11.6915 76.3964C9.23775 75.6173 7.14838 74.7528 5.42335 73.8029C3.69088 72.8605 2.37108 71.6731 1.46395 70.2409C0.549385 68.8161 0.0921021 66.9906 0.0921021 64.7644C0.0921021 62.464 0.686941 60.3862 1.87662 58.531C3.0663 56.6758 4.92517 55.2102 7.45323 54.1342C9.9813 53.0582 13.2157 52.5202 17.1565 52.5202C18.3462 52.5202 19.6214 52.5684 20.9821 52.6649C22.3354 52.7539 23.4209 52.8727 24.2388 53.0211L30.5404 57.6405L28.3655 64.4305L15.149 60.8129C13.6247 60.8129 12.5019 61.1282 11.7807 61.759C11.052 62.3898 10.6877 63.1504 10.6877 64.0409C10.6877 65.1169 11.3011 65.9703 12.528 66.6011C13.7548 67.2318 15.5207 67.8626 17.8257 68.4933C21.4691 69.4951 24.2946 70.6083 26.3022 71.8327C28.3098 73.0571 29.7225 74.4374 30.5404 75.9735C31.3583 77.517 31.7673 79.2534 31.7673 81.1828C31.7673 84.7448 30.3359 87.6092 27.4733 89.7761C24.6106 91.9503 20.3166 93.0375 14.5913 93.0375ZM45.0396 92.4809H34.5556L37.2324 83.0751V76.0069L41.3591 74.3372L48.6087 53.1324H63.0521L72.0304 78.0661L76.3244 85.9692V92.4809H66.4538L63.6655 83.576H47.4376L45.0396 92.4809ZM55.1891 62.2599L51.1181 75.0051H60.5984L56.3602 62.2599H55.1891ZM91.3701 92.4809H81.3322V62.0373L80.2169 56.4161L81.3322 53.0767H99.1774C101.899 53.0767 104.345 53.496 106.516 54.3345C108.687 55.1657 110.416 56.5719 111.702 58.5532C112.989 60.542 113.632 63.2803 113.632 66.768C113.632 69.9218 113.056 72.4709 111.903 74.4151C110.743 76.3668 109.141 77.8249 107.096 78.7896L107.654 79.4019L113.186 86.3032L116.365 89.1416V92.4809H103.817L96.0099 80.6263H91.3701V83.5204L91.9278 89.0859L91.3701 92.4809ZM90.8125 61.9816L91.3701 71.8883H96.8464C98.7722 71.8883 100.311 71.5247 101.464 70.7975C102.616 70.0777 103.193 68.7345 103.193 66.768C103.193 65.3952 102.914 64.3637 102.356 63.6736C101.798 62.9909 101.029 62.5382 100.047 62.3156C99.0659 62.0929 97.9245 61.9816 96.6233 61.9816H90.8125ZM130.908 92.4809H120.815V61.9816L120.257 56.4161L120.815 53.0767H130.908V92.4809Z" fill="#1D3F58"/>
</g>
</g>
</g>
</g>
<g clip-path="url(#clip7_465_771)">
<g clip-path="url(#clip8_465_771)">
<path d="M92.7884 18.4128C89.9602 20.8933 87.0544 23.2954 84.0831 25.6032C86.9097 23.1219 89.8171 20.7214 92.7884 18.4128Z" fill="#1D3F58"/>
<path d="M94.7393 20.2098C91.9111 22.6911 89.0053 25.0924 86.034 27.4002C88.8622 24.9189 91.768 22.5192 94.7393 20.2098Z" fill="#1D3F58"/>
<path d="M96.7525 28.1861C95.277 29.5377 93.7327 30.8142 92.1262 32.0077C93.6017 30.6569 95.1468 29.3804 96.7525 28.1861Z" fill="#1D3F58"/>
<path d="M96.7525 26.6885C95.277 28.0401 93.7327 29.3166 92.1262 30.51C93.6017 29.1585 95.1468 27.8827 96.7525 26.6885Z" fill="#1D3F58"/>
<path d="M89.8486 19.7232C88.3731 21.074 86.8288 22.3513 85.2223 23.544C86.6978 22.1932 88.2429 20.9167 89.8486 19.7232Z" fill="#1D3F58"/>
<path d="M40.1792 17.388C37.8369 19.4344 35.4357 21.4177 32.9826 23.3309C35.3249 21.2846 37.7254 19.302 40.1792 17.388Z" fill="#1D3F58"/>
<path d="M37.7496 18.4709C36.5296 19.5885 35.2521 20.6431 33.9246 21.6308C35.1438 20.5124 36.4212 19.4586 37.7496 18.4709Z" fill="#1D3F58"/>
<path d="M40.0806 27.9142C39.0966 28.8147 38.0674 29.6652 36.9969 30.4616C37.9808 29.5619 39.0101 28.7122 40.0806 27.9142Z" fill="#1D3F58"/>
<path d="M40.0806 6.94339C39.0966 7.8431 38.0674 8.69358 36.9969 9.49C37.9808 8.59029 39.0101 7.73981 40.0806 6.94339Z" fill="#1D3F58"/>
<path d="M38.0649 7.21774C37.4092 7.81808 36.7228 8.38535 36.0089 8.91629C36.6654 8.31595 37.3526 7.74869 38.0649 7.21774Z" fill="#1D3F58"/>
<path d="M41.4332 31.9689H31.178V13.7448H41.434L41.4332 31.9689ZM31.478 31.6696H41.1333V14.0442H31.478V31.6696Z" fill="#1D3F58"/>
<path d="M102.519 9.6425V8.95179H102.419V8.30222H102.719V7.95283H102.419V4.55735L102.869 3.25983H44.0787C39.9537 -1.13703 32.7579 -1.13703 28.6329 3.25983H25.0746L25.5249 4.55735V7.95283H25.3244V8.30222H25.5249V8.60239H25.7748V41.3557H28.7436L27.5527 42.6928V42.955H44.9624V42.6928L43.9202 41.3557L102.52 41.4058V41.3807H102.845V34.2404H102.52V34.0161H103.07L102.92 33.6166H102.52V15.6798C102.268 15.512 102.097 15.2199 102.084 14.8866C102.084 14.5897 102.084 14.2919 102.084 13.995L98.9323 9.20193H100.472L102.394 11.7582L102.52 11.9406V11.9253L104.075 13.995C104.075 14.2919 104.075 14.5897 104.075 14.8866C104.121 16.0921 105.871 16.1002 105.907 14.8866H105.908L105.915 13.995H105.926L102.519 9.6425ZM42.8344 41.3444H29.6766V12.2964H42.8336L42.8344 41.3444ZM29.6265 10.5245C29.6265 1.92762 42.984 1.92762 42.984 10.5245H29.6265ZM47.0395 13.9942L47.033 14.8858C46.9966 16.0994 45.2462 16.0905 45.2009 14.8858C45.2009 14.5889 45.2001 14.2911 45.2001 13.9942L48.6533 9.20112H50.3544L47.0524 13.9942H47.0395ZM51.1936 13.8449C51.1936 13.8473 51.1936 13.8505 51.1936 13.8538L51.1095 13.995H51.0966L51.0909 14.8866H51.0893C51.0529 16.1002 49.3033 16.0921 49.258 14.8866C49.258 14.5897 49.2572 14.2919 49.2572 13.995L50.9446 11.1014L52.1945 9.20193H51.4378H53.9547L51.1936 13.8449ZM99.8014 13.9942H99.7885L99.7828 14.8858H99.7812C99.7448 16.0994 97.9952 16.0905 97.9499 14.8858C97.9491 14.5889 97.9491 14.2911 97.9499 13.9942H97.9596L95.108 9.20112H93.4069L96.1089 13.9942C96.1089 14.2911 96.1089 14.5889 96.1089 14.8858C96.1397 15.7177 96.9846 15.9792 97.5149 15.6621V32.4926H51.4386V15.3619C51.9318 15.884 52.9966 15.6798 53.0249 14.7365H53.0265L53.0322 13.8449H53.0451L55.6623 9.20112H97.5158L97.667 9.93944L99.8014 13.9942Z" fill="#1D3F58"/>
<path d="M55.3825 13.9942C55.3825 14.2911 55.3825 14.5889 55.3825 14.8858C55.4278 16.0905 57.1774 16.0994 57.2138 14.8858H57.2154L57.2211 13.9942H57.234L59.3361 9.20111H57.635L55.3825 13.9942Z" fill="#1D3F58"/>
<path d="M59.4404 13.9942C59.4404 14.2911 59.4404 14.5889 59.4404 14.8858C59.4857 16.0905 61.2353 16.0994 61.2717 14.8858H61.2733L61.279 13.9942H61.2919L62.9429 9.20111H61.2418L59.4404 13.9942Z" fill="#1D3F58"/>
<path d="M63.4975 13.9942C63.4975 14.2911 63.4975 14.5889 63.4975 14.8858C63.5428 16.0905 65.2924 16.0994 65.3288 14.8858H65.3304L65.3361 13.9942H65.349L66.5497 9.20111H64.8486L63.4975 13.9942Z" fill="#1D3F58"/>
<path d="M67.6306 13.9942C67.6306 14.2911 67.6306 14.5889 67.6306 14.8858C67.6759 16.0905 69.4264 16.0994 69.4619 14.8858H69.4635L69.47 13.9942H69.4821L70.0829 9.20111H68.3818L67.6306 13.9942Z" fill="#1D3F58"/>
<path d="M71.6878 13.9942C71.6878 14.2911 71.6878 14.5889 71.6878 14.8858C71.7322 16.0905 73.4835 16.0994 73.5191 14.8858H73.5207L73.5271 13.9942H73.5401L73.6905 9.20111H71.9894L71.6878 13.9942Z" fill="#1D3F58"/>
<path d="M75.5209 9.20111L75.6713 13.9942C75.6713 14.2911 75.6713 14.5889 75.6713 14.8858C75.7158 16.0905 77.467 16.0994 77.5026 14.8858H77.5042L77.5107 13.9942H77.5236L77.2229 9.20111H75.5209Z" fill="#1D3F58"/>
<path d="M79.1277 9.20111L79.7276 13.9942C79.7276 14.2911 79.7276 14.5889 79.7276 14.8858C79.7721 16.0905 81.5233 16.0994 81.5597 14.8858L81.567 13.9942H81.5799L80.8288 9.20111H79.1277Z" fill="#1D3F58"/>
<path d="M82.7353 9.20111L83.7864 13.9942C83.7864 14.2911 83.7855 14.5889 83.7855 14.8858C83.8308 16.0905 85.5813 16.0994 85.6176 14.8858H85.6193L85.6249 13.9942H85.6379L84.4372 9.20111H82.7353Z" fill="#1D3F58"/>
<path d="M86.2677 9.20111L87.9195 13.9942C87.9195 14.2911 87.9187 14.5889 87.9187 14.8858C87.964 16.0905 89.7144 16.0994 89.7508 14.8858H89.7524L89.7581 13.9942H89.771L87.9696 9.20111H86.2677Z" fill="#1D3F58"/>
<path d="M89.8001 9.20111L92.0518 13.9942C92.051 14.2911 92.051 14.5889 92.0518 14.8858C92.0971 16.0905 93.8467 16.0994 93.8831 14.8858H93.8847L93.8903 13.9942H93.9033L91.5012 9.20111H89.8001Z" fill="#1D3F58"/>
</g>
</g>
</g>
</g>
</g>
<defs>
<clipPath id="clip0_465_771">
<rect width="131" height="93" fill="white"/>
</clipPath>
<clipPath id="clip1_465_771">
<rect width="130.827" height="93.0753" fill="white" transform="translate(0.0865173 -0.0378113)"/>
</clipPath>
<clipPath id="clip2_465_771">
<rect width="130.827" height="93.0753" fill="white" transform="translate(0.0865173 -0.0378113)"/>
</clipPath>
<clipPath id="clip3_465_771">
<rect width="130.827" height="40.5173" fill="white" transform="translate(0.0865173 52.5202)"/>
</clipPath>
<clipPath id="clip4_465_771">
<rect width="130.827" height="40.5173" fill="white" transform="translate(0.0865173 52.5202)"/>
</clipPath>
<clipPath id="clip5_465_771">
<rect width="130.827" height="40.5173" fill="white" transform="translate(0.0865173 52.5202)"/>
</clipPath>
<clipPath id="clip6_465_771">
<rect width="130.827" height="40.5173" fill="white" transform="translate(0.0865173 52.5202)"/>
</clipPath>
<clipPath id="clip7_465_771">
<rect width="80.8513" height="42.9928" fill="white" transform="translate(25.0746 -0.0378113)"/>
</clipPath>
<clipPath id="clip8_465_771">
<rect width="80.8513" height="42.9928" fill="white" transform="translate(25.0746 -0.0378113)"/>
</clipPath>
</defs>
</svg>
