<svg width="27" height="24" viewBox="0 0 27 24" fill="none" xmlns="http://www.w3.org/2000/svg">
<path d="M4 5.33331H6.66667V18.6666H4V5.33331ZM16 5.33331H17.3333V18.6666H16V5.33331ZM10.6667 5.33331H14.6667V18.6666H10.6667V5.33331ZM8 5.33331H9.33333V18.6666H8V5.33331ZM18.6667 5.33331H22.6667V18.6666H18.6667V5.33331Z" fill="#EEF3F9"/>
<path d="M2.66667 2.66667H8V0H2.66667C1.196 0 0 1.196 0 2.66667V8H2.66667V2.66667ZM2.66667 24H8V21.3333H2.66667V16H0V21.3333C0 22.804 1.196 24 2.66667 24ZM24 0H18.6667V2.66667H24V8H26.6667V2.66667C26.6667 1.196 25.4707 0 24 0ZM24 21.3333H18.6667V24H24C25.4707 24 26.6667 22.804 26.6667 21.3333V16H24V21.3333Z" fill="#EEF3F9"/>
</svg>
