<svg width="24" height="24" viewBox="0 0 24 24" fill="none" xmlns="http://www.w3.org/2000/svg">
<g clip-path="url(#clip0_500_32)">
<path fill-rule="evenodd" clip-rule="evenodd" d="M21.2942 12C21.2942 11.4777 21.2462 10.944 21.1488 10.4104L23.7761 8.13318L21.2829 3.87248L17.9681 4.97789C17.1309 4.2833 16.1765 3.73553 15.1699 3.3727L14.4867 0H9.5144L8.83113 3.3713C7.81325 3.73553 6.87584 4.27483 6.0316 4.97648L2.71819 3.87248L0.225 8.13318L2.8523 10.4104C2.75488 10.944 2.70688 11.4777 2.70688 12C2.70688 12.5224 2.75488 13.056 2.85229 13.5897L0.225 15.8668L2.71818 20.1275L6.033 19.0221C6.87018 19.7167 7.82453 20.2645 8.83113 20.6273L9.5144 24H14.4866L15.1699 20.6287C16.1864 20.2645 17.1252 19.7252 17.9695 19.0235L21.2829 20.1289L23.7761 15.8682L21.1488 13.5911C21.2462 13.056 21.2942 12.5224 21.2942 12M12.0005 16.9412C9.27581 16.9412 7.05934 14.7247 7.05934 12C7.05934 9.2753 9.27581 7.05883 12.0005 7.05883C14.7252 7.05883 16.9417 9.2753 16.9417 12C16.9417 14.7247 14.7252 16.9412 12.0005 16.9412Z" fill="#EEF3F9"/>
</g>
<defs>
<clipPath id="clip0_500_32">
<rect width="24" height="24" fill="white"/>
</clipPath>
</defs>
</svg>
